0
SECTION
2
HEADER
9
$INSUNITS
70
4
9
$ACADVER
1
AC1014
9
$HANDSEED
5
FFFF
0
ENDSEC
0
SECTION
2
TABLES
0
TABLE
2
VPORT
5
8
100
AcDbSymbolTable
0
ENDTAB
0
TABLE
2
LTYPE
5
5
100
AcDbSymbolTable
0
LTYPE
5
14
100
AcDbSymbolTableRecord
100
AcDbLinetypeTableRecord
2
BYBLOCK
70
0
0
LTYPE
5
15
100
AcDbSymbolTableRecord
100
AcDbLinetypeTableRecord
2
BYLAYER
70
0
0
ENDTAB
0
TABLE
2
LAYER
5
2
100
AcDbSymbolTable
70
2
0
LAYER
5
50
100
AcDbSymbolTableRecord
100
AcDbLayerTableRecord
2
0
70
0
6
CONTINUOUS
0
ENDTAB
0
TABLE
2
STYLE
5
3
100
AcDbSymbolTable
70
1
0
STYLE
5
11
100
AcDbSymbolTableRecord
100
AcDbTextStyleTableRecord
2
STANDARD
70
0
0
ENDTAB
0
TABLE
2
VIEW
5
6
100
AcDbSymbolTable
70
0
0
ENDTAB
0
TABLE
2
UCS
5
7
100
AcDbSymbolTable
70
0
0
ENDTAB
0
TABLE
2
APPID
5
9
100
AcDbSymbolTable
70
2
0
APPID
5
12
100
AcDbSymbolTableRecord
100
AcDbRegAppTableRecord
2
ACAD
70
0
0
ENDTAB
0
TABLE
2
DIMSTYLE
5
A
100
AcDbSymbolTable
70
1
0
ENDTAB
0
TABLE
2
BLOCK_RECORD
5
1
100
AcDbSymbolTable
70
1
0
BLOCK_RECORD
5
1F
100
AcDbSymbolTableRecord
100
AcDbBlockTableRecord
2
*MODEL_SPACE
0
BLOCK_RECORD
5
1B
100
AcDbSymbolTableRecord
100
AcDbBlockTableRecord
2
*PAPER_SPACE
0
ENDTAB
0
ENDSEC
0
SECTION
2
BLOCKS
0
BLOCK
5
20
100
AcDbEntity
100
AcDbBlockBegin
2
*MODEL_SPACE
0
ENDBLK
5
21
100
AcDbEntity
100
AcDbBlockEnd
0
BLOCK
5
1C
100
AcDbEntity
100
AcDbBlockBegin
2
*PAPER_SPACE
0
ENDBLK
5
1D
100
AcDbEntity
100
AcDbBlockEnd
0
ENDSEC
0
SECTION
2
ENTITIES
0
LINE
5
100
100
AcDbEntity
8
0
100
AcDbLine
10
290
20
0
30
0
11
492.05360780980016
21
3.1149931798953579e-18
31
0
0
LINE
5
101
100
AcDbEntity
8
0
100
AcDbLine
10
533.5
20
22.499999999999961
30
0
11
533.5
21
58.972619514720456
31
0
0
LINE
5
102
100
AcDbEntity
8
0
100
AcDbLine
10
492.05360780980004
20
80
30
0
11
290
21
80
31
0
0
LINE
5
103
100
AcDbEntity
8
0
100
AcDbLine
10
280
20
70
30
0
11
280
21
10
31
0
0
ARC
5
104
100
AcDbEntity
8
0
100
AcDbCircle
10
290
20
70
30
0
40
10
210
0
220
-0
230
1
100
AcDbArc
50
90
51
180
0
ARC
5
105
100
AcDbEntity
8
0
100
AcDbCircle
10
290
20
9.9999999999999876
30
0
40
10
210
0
220
0
230
1
100
AcDbArc
50
180
51
270
0
LINE
5
106
100
AcDbEntity
8
0
100
AcDbLine
10
523.05360780980004
20
67.5
30
0
11
523.60902473147439
21
67.499999999961105
31
0
0
LINE
5
107
100
AcDbEntity
8
0
100
AcDbLine
10
523.50000000000011
20
12.5
30
0
11
523.05360780979993
21
12.5
31
0
0
ARC
5
108
100
AcDbEntity
8
0
100
AcDbCircle
10
523.60902473136491
20
57.499999999961119
30
0
40
10
210
0
220
0
230
1
100
AcDbArc
50
0
51
89.999999999372719
0
ARC
5
109
100
AcDbEntity
8
0
100
AcDbCircle
10
523.50000000000011
20
22.499999999999961
30
0
40
9.9999999999999609
210
0
220
0
230
1
100
AcDbArc
50
-90
51
0
0
LWPOLYLINE
5
110
100
AcDbEntity
8
0
100
AcDbPolyline
90
4
70
1
43
0.0
10
292.5
20
49.5
10
358.5
20
49.5
10
358.5
20
30.500000000000004
10
292.5
20
30.500000000000004
0
CIRCLE
5
111
100
AcDbEntity
8
0
100
AcDbCircle
10
528.05360780980004
20
52.500000000000348
30
0
40
1
210
0
220
0
230
1
0
CIRCLE
5
112
100
AcDbEntity
8
0
100
AcDbCircle
10
528.05360780980004
20
27.500000000000338
30
0
40
1
210
0
220
0
230
1
0
LINE
5
113
100
AcDbEntity
8
0
100
AcDbLine
10
497.05360780980004
20
67.500000000000156
30
0
11
497.05360780980004
21
75
31
0
0
LINE
5
114
100
AcDbEntity
8
0
100
AcDbLine
10
497.05360780980004
20
12.500000000000002
30
0
11
497.05360780980004
21
4.9999999999999289
31
0
0
LINE
5
115
100
AcDbEntity
8
0
100
AcDbLine
10
497.05360780980004
20
51.000000000000313
30
0
11
523.05360780980004
21
51.000000000000369
31
0
0
LINE
5
116
100
AcDbEntity
8
0
100
AcDbLine
10
497.05360780980004
20
29.000000000000323
30
0
11
523.05360780980004
21
29.000000000000359
31
0
0
CIRCLE
5
117
100
AcDbEntity
8
0
100
AcDbCircle
10
324.60000000000002
20
74
30
0
40
1
210
0
220
0
230
1
0
CIRCLE
5
118
100
AcDbEntity
8
0
100
AcDbCircle
10
324.60000000000002
20
6.0000000000000009
30
0
40
1
210
0
220
0
230
1
0
CIRCLE
5
119
100
AcDbEntity
8
0
100
AcDbCircle
10
373
20
64
30
0
40
1
210
0
220
0
230
1
0
CIRCLE
5
120
100
AcDbEntity
8
0
100
AcDbCircle
10
349
20
64
30
0
40
1
210
0
220
0
230
1
0
LWPOLYLINE
5
121
100
AcDbEntity
8
0
100
AcDbPolyline
90
4
70
1
43
0.0
10
484.69999999999999
20
46.500000000000277
10
460.40000000000009
20
46.500000000000277
10
460.40000000000009
20
33.500000000000256
10
484.70000000000005
20
33.500000000000291
0
LINE
5
122
100
AcDbEntity
8
0
100
AcDbLine
10
497.05360780980004
20
12.500000000000002
30
0
11
497.05360780980004
21
29.000000000000323
31
0
0
LINE
5
123
100
AcDbEntity
8
0
100
AcDbLine
10
497.05360780980004
20
51.000000000000313
30
0
11
497.05360780980004
21
67.500000000000156
31
0
0
LINE
5
124
100
AcDbEntity
8
0
100
AcDbLine
10
523.05360780979993
20
12.5
30
0
11
523.05360780980004
21
29.000000000000359
31
0
0
LINE
5
125
100
AcDbEntity
8
0
100
AcDbLine
10
523.05360780980004
20
51.000000000000369
30
0
11
523.05360780980004
21
67.5
31
0
0
ARC
5
126
100
AcDbEntity
8
0
100
AcDbCircle
10
492.05360780980004
20
75
30
0
40
5
210
0
220
0
230
1
100
AcDbArc
50
0
51
90
0
ARC
5
127
100
AcDbEntity
8
0
100
AcDbCircle
10
492.05360780980016
20
4.9999999999999289
30
0
40
4.9999999999999289
210
0
220
0
230
1
100
AcDbArc
50
-90
51
0
0
LINE
5
128
100
AcDbEntity
8
0
100
AcDbLine
10
395
20
40
30
0
11
395
21
44
31
0
0
LWPOLYLINE
5
129
100
AcDbEntity
8
0
100
AcDbPolyline
90
6
70
1
43
0.0
10
398.46410161513774
20
42
10
395
20
44
10
391.53589838486226
20
42
10
391.53589838486226
20
38
10
395
20
36
10
398.46410161513774
20
38
0
LINE
5
130
100
AcDbEntity
8
0
100
AcDbLine
10
395
20
40
30
0
11
396.73205080756884
21
43.000000000000007
31
0
0
LINE
5
131
100
AcDbEntity
8
0
100
AcDbLine
10
395
20
40
30
0
11
393.26794919243116
21
43.000000000000007
31
0
0
LWPOLYLINE
5
132
100
AcDbEntity
8
0
100
AcDbPolyline
90
6
70
1
43
0.0
10
437.96446981343337
20
5.8333421451493761
10
441.4285714285711
20
3.8333421451493743
10
444.89267304370901
20
5.8333421451493717
10
444.89267304370901
20
9.8333421451493752
10
441.42857142857116
20
11.833342145149375
10
437.96446981343337
20
9.8333421451493752
0
LWPOLYLINE
5
133
100
AcDbEntity
8
0
100
AcDbPolyline
90
6
70
1
43
0.0
10
449.53553018656606
20
13.875006608862028
10
449.53553018656606
20
17.87500660886203
10
446.07142857142833
20
19.875006608862034
10
442.60732695629059
20
17.87500660886203
10
442.60732695629059
20
13.875006608862037
10
446.07142857142833
20
11.875006608862028
0
LWPOLYLINE
5
134
100
AcDbEntity
8
0
100
AcDbPolyline
90
6
70
1
43
0.0
10
450.71428571428544
20
27.91667107257469
10
447.25018409914765
20
25.916671072574694
10
447.25018409914759
20
21.91667107257469
10
450.71428571428544
20
19.916671072574687
10
454.17838732942312
20
21.91667107257469
10
454.17838732942312
20
25.916671072574694
0
LWPOLYLINE
5
135
100
AcDbEntity
8
0
100
AcDbPolyline
90
6
70
1
43
0.0
10
432.14285714285694
20
11.833342145149366
10
428.6787555277192
20
9.8333421451493628
10
428.6787555277192
20
5.8333421451493628
10
432.14285714285694
20
3.8333421451493614
10
435.60695875799473
20
5.8333421451493583
10
435.60695875799468
20
9.8333421451493628
0
LWPOLYLINE
5
136
100
AcDbEntity
8
0
100
AcDbPolyline
90
6
70
1
43
0.0
10
440.24981590085184
20
13.875006608862019
10
440.24981590085184
20
17.875006608862023
10
436.78571428571399
20
19.875006608862023
10
433.32161267057631
20
17.875006608862023
10
433.32161267057631
20
13.875006608862028
10
436.78571428571399
20
11.875006608862027
0
LWPOLYLINE
5
137
100
AcDbEntity
8
0
100
AcDbPolyline
90
6
70
1
43
0.0
10
437.96446981343337
20
21.916671072574676
10
441.4285714285711
20
19.91667107257468
10
444.8926730437089
20
21.916671072574676
10
444.89267304370901
20
25.91667107257468
10
441.4285714285711
20
27.916671072574676
10
437.96446981343337
20
25.91667107257468
0
LWPOLYLINE
5
138
100
AcDbEntity
8
0
100
AcDbPolyline
90
6
70
1
43
0.0
10
426.32124447228045
20
9.8333421451493663
10
422.85714285714272
20
11.833342145149366
10
419.39304124200487
20
9.8333421451493663
10
419.39304124200487
20
5.8333421451493672
10
422.85714285714272
20
3.8333421451493654
10
426.32124447228045
20
5.8333421451493628
0
LWPOLYLINE
5
139
100
AcDbEntity
8
0
100
AcDbPolyline
90
6
70
1
43
0.0
10
427.49999999999977
20
19.87500660886203
10
424.03589838486198
20
17.875006608862027
10
424.03589838486198
20
13.875006608862028
10
427.49999999999977
20
11.875006608862028
10
430.96410161513757
20
13.875006608862028
10
430.96410161513757
20
17.875006608862027
0
LWPOLYLINE
5
140
100
AcDbEntity
8
0
100
AcDbPolyline
90
6
70
1
43
0.0
10
435.60695875799468
20
25.916671072574694
10
432.14285714285688
20
27.91667107257469
10
428.6787555277192
20
25.916671072574694
10
428.6787555277192
20
21.91667107257469
10
432.14285714285694
20
19.916671072574687
10
435.60695875799468
20
21.91667107257469
0
LWPOLYLINE
5
141
100
AcDbEntity
8
0
100
AcDbPolyline
90
6
70
1
43
0.0
10
447.25018409914759
20
58.083328927425306
10
447.25018409914759
20
54.08332892742532
10
450.71428571428544
20
52.083328927425313
10
454.17838732942312
20
54.083328927425313
10
454.17838732942312
20
58.083328927425306
10
450.71428571428544
20
60.083328927425306
0
LWPOLYLINE
5
142
100
AcDbEntity
8
0
100
AcDbPolyline
90
6
70
1
43
0.0
10
417.03553018656623
20
9.8333421451493663
10
413.57142857142844
20
11.833342145149366
10
410.10732695629076
20
9.8333421451493663
10
410.10732695629076
20
5.8333421451493672
10
413.57142857142844
20
3.8333421451493654
10
417.03553018656623
20
5.8333421451493628
0
LWPOLYLINE
5
143
100
AcDbEntity
8
0
100
AcDbPolyline
90
6
70
1
43
0.0
10
421.67838732942329
20
13.875006608862019
10
421.67838732942329
20
17.875006608862023
10
418.21428571428555
20
19.875006608862023
10
414.75018409914782
20
17.875006608862023
10
414.75018409914782
20
13.875006608862028
10
418.21428571428555
20
11.875006608862027
0
LWPOLYLINE
5
144
100
AcDbEntity
8
0
100
AcDbPolyline
90
6
70
1
43
0.0
10
419.39304124200487
20
25.916671072574683
10
419.39304124200487
20
21.91667107257469
10
422.85714285714272
20
19.916671072574683
10
426.32124447228045
20
21.916671072574676
10
426.32124447228045
20
25.916671072574683
10
422.85714285714272
20
27.91667107257469
0
LWPOLYLINE
5
145
100
AcDbEntity
8
0
100
AcDbPolyline
90
6
70
1
43
0.0
10
444.89267304370901
20
58.083328927425335
10
441.42857142857116
20
60.083328927425335
10
437.96446981343337
20
58.083328927425335
10
437.96446981343337
20
54.08332892742532
10
441.4285714285711
20
52.083328927425327
10
444.8926730437089
20
54.08332892742532
0
LWPOLYLINE
5
146
100
AcDbEntity
8
0
100
AcDbPolyline
90
6
70
1
43
0.0
10
442.60732695629059
20
62.124993391137977
10
446.07142857142833
20
60.124993391137963
10
449.53553018656606
20
62.124993391137977
10
449.53553018656606
20
66.124993391137977
10
446.07142857142833
20
68.124993391137977
10
442.60732695629059
20
66.124993391137977
0
LWPOLYLINE
5
147
100
AcDbEntity
8
0
100
AcDbPolyline
90
6
70
1
43
0.0
10
407.74981590085201
20
5.8333421451493628
10
407.74981590085201
20
9.8333421451493663
10
404.28571428571433
20
11.833342145149366
10
400.82161267057649
20
9.8333421451493663
10
400.82161267057649
20
5.8333421451493672
10
404.28571428571422
20
3.8333421451493654
0
LWPOLYLINE
5
148
100
AcDbEntity
8
0
100
AcDbPolyline
90
6
70
1
43
0.0
10
408.92857142857139
20
11.875006608862027
10
412.39267304370912
20
13.875006608862019
10
412.39267304370912
20
17.875006608862023
10
408.92857142857139
20
19.875006608862023
10
405.4644698134336
20
17.875006608862023
10
405.4644698134336
20
13.875006608862028
0
LWPOLYLINE
5
149
100
AcDbEntity
8
0
100
AcDbPolyline
90
6
70
1
43
0.0
10
410.10732695629076
20
21.91667107257469
10
413.57142857142844
20
19.91667107257468
10
417.03553018656623
20
21.916671072574676
10
417.03553018656623
20
25.91667107257468
10
413.57142857142844
20
27.916671072574676
10
410.10732695629076
20
25.91667107257468
0
LWPOLYLINE
5
150
100
AcDbEntity
8
0
100
AcDbPolyline
90
6
70
1
43
0.0
10
435.60695875799468
20
58.083328927425306
10
432.14285714285688
20
60.083328927425306
10
428.6787555277192
20
58.083328927425306
10
428.6787555277192
20
54.08332892742532
10
432.14285714285694
20
52.083328927425313
10
435.60695875799468
20
54.083328927425313
0
LWPOLYLINE
5
151
100
AcDbEntity
8
0
100
AcDbPolyline
90
6
70
1
43
0.0
10
433.32161267057631
20
62.124993391137977
10
436.78571428571399
20
60.124993391137977
10
440.24981590085184
20
62.124993391137977
10
440.24981590085184
20
66.124993391137977
10
436.78571428571399
20
68.124993391137977
10
433.32161267057631
20
66.124993391137977
0
LWPOLYLINE
5
152
100
AcDbEntity
8
0
100
AcDbPolyline
90
6
70
1
43
0.0
10
441.4285714285711
20
76.166657854850627
10
437.96446981343337
20
74.166657854850627
10
437.96446981343337
20
70.166657854850641
10
441.4285714285711
20
68.166657854850641
10
444.8926730437089
20
70.166657854850641
10
444.89267304370901
20
74.166657854850627
0
LWPOLYLINE
5
153
100
AcDbEntity
8
0
100
AcDbPolyline
90
4
70
1
43
0.0
10
395
20
3.8333421451493654
10
398.46410161513774
20
5.8333421451493628
10
398.46410161513774
20
9.8333421451493663
10
395
20
11.833342145149366
0
LWPOLYLINE
5
154
100
AcDbEntity
8
0
100
AcDbPolyline
90
6
70
1
43
0.0
10
403.1069587579949
20
13.875006608862019
10
403.1069587579949
20
17.875006608862023
10
399.64285714285717
20
19.875006608862023
10
396.17875552771932
20
17.875006608862023
10
396.17875552771932
20
13.875006608862028
10
399.64285714285717
20
11.875006608862027
0
LWPOLYLINE
5
155
100
AcDbEntity
8
0
100
AcDbPolyline
90
6
70
1
43
0.0
10
404.28571428571422
20
27.91667107257469
10
400.82161267057649
20
25.916671072574683
10
400.82161267057649
20
21.91667107257469
10
404.28571428571422
20
19.916671072574683
10
407.74981590085201
20
21.916671072574676
10
407.74981590085201
20
25.916671072574683
0
LWPOLYLINE
5
156
100
AcDbEntity
8
0
100
AcDbPolyline
90
6
70
1
43
0.0
10
408.92857142857139
20
35.95833553628735
10
405.4644698134336
20
33.958335536287343
10
405.4644698134336
20
29.95833553628735
10
408.92857142857139
20
27.95833553628734
10
412.39267304370912
20
29.95833553628735
10
412.39267304370912
20
33.958335536287343
0
LWPOLYLINE
5
157
100
AcDbEntity
8
0
100
AcDbPolyline
90
6
70
1
43
0.0
10
408.92857142857139
20
27.95833553628734
10
412.39267304370912
20
29.95833553628735
10
412.39267304370912
20
33.958335536287343
10
408.92857142857139
20
35.95833553628735
10
405.4644698134336
20
33.958335536287343
10
405.4644698134336
20
29.95833553628735
0
LWPOLYLINE
5
158
100
AcDbEntity
8
0
100
AcDbPolyline
90
6
70
1
43
0.0
10
410.10732695629076
20
38
10
413.57142857142844
20
36
10
417.03553018656623
20
38
10
417.03553018656623
20
42
10
413.57142857142844
20
44
10
410.10732695629076
20
42
0
LWPOLYLINE
5
159
100
AcDbEntity
8
0
100
AcDbPolyline
90
6
70
1
43
0.0
10
419.39304124200487
20
58.083328927425335
10
419.39304124200487
20
54.08332892742532
10
422.85714285714266
20
52.083328927425327
10
426.32124447228045
20
54.08332892742532
10
426.32124447228045
20
58.083328927425335
10
422.85714285714272
20
60.083328927425306
0
LWPOLYLINE
5
160
100
AcDbEntity
8
0
100
AcDbPolyline
90
6
70
1
43
0.0
10
427.49999999999977
20
68.124993391137977
10
424.03589838486198
20
66.124993391137977
10
424.03589838486198
20
62.124993391137977
10
427.49999999999977
20
60.124993391137977
10
430.96410161513757
20
62.124993391137977
10
430.96410161513757
20
66.124993391137977
0
LWPOLYLINE
5
161
100
AcDbEntity
8
0
100
AcDbPolyline
90
6
70
1
43
0.0
10
428.6787555277192
20
74.166657854850641
10
428.6787555277192
20
70.166657854850641
10
432.14285714285694
20
68.166657854850641
10
435.60695875799473
20
70.166657854850641
10
435.60695875799468
20
74.166657854850641
10
432.14285714285688
20
76.166657854850655
0
LWPOLYLINE
5
162
100
AcDbEntity
8
0
100
AcDbPolyline
90
6
70
1
43
0.0
10
390.35714285714283
20
19.875006608862023
10
386.8930412420051
20
17.875006608862023
10
386.8930412420051
20
13.875006608862028
10
390.35714285714283
20
11.875006608862027
10
393.82124447228068
20
13.875006608862019
10
393.82124447228068
20
17.875006608862023
0
LWPOLYLINE
5
163
100
AcDbEntity
8
0
100
AcDbPolyline
90
6
70
1
43
0.0
10
395
20
19.916671072574683
10
398.46410161513774
20
21.916671072574676
10
398.46410161513774
20
25.916671072574683
10
395
20
27.91667107257469
10
391.53589838486226
20
25.916671072574683
10
391.53589838486226
20
21.91667107257469
0
LWPOLYLINE
5
164
100
AcDbEntity
8
0
100
AcDbPolyline
90
6
70
1
43
0.0
10
396.17875552771932
20
29.95833553628735
10
399.64285714285717
20
27.95833553628734
10
403.1069587579949
20
29.95833553628735
10
403.1069587579949
20
33.958335536287343
10
399.64285714285717
20
35.95833553628735
10
396.17875552771932
20
33.958335536287343
0
LWPOLYLINE
5
165
100
AcDbEntity
8
0
100
AcDbPolyline
90
6
70
1
43
0.0
10
400.82161267057649
20
42
10
400.82161267057649
20
38
10
404.28571428571422
20
36
10
407.74981590085201
20
38
10
407.74981590085201
20
42
10
404.28571428571422
20
44
0
LWPOLYLINE
5
166
100
AcDbEntity
8
0
100
AcDbPolyline
90
12
70
1
43
0.0
10
412.39267304370912
20
50.041664463712657
10
408.92857142857139
20
52.041664463712664
10
405.4644698134336
20
50.041664463712657
10
405.4644698134336
20
46.041664463712657
10
408.92857142857139
20
44.041664463712664
10
412.39267304370912
20
46.041664463712657
10
412.39267304370912
20
50.041664463712657
10
408.92857142857139
20
52.041664463712664
10
405.4644698134336
20
50.041664463712657
10
405.4644698134336
20
46.041664463712657
10
408.92857142857139
20
44.041664463712664
10
412.39267304370912
20
46.041664463712657
0
LWPOLYLINE
5
167
100
AcDbEntity
8
0
100
AcDbPolyline
90
6
70
1
43
0.0
10
417.03553018656623
20
58.083328927425335
10
413.57142857142844
20
60.083328927425335
10
410.10732695629076
20
58.083328927425335
10
410.10732695629076
20
54.08332892742532
10
413.57142857142844
20
52.083328927425327
10
417.03553018656623
20
54.08332892742532
0
LWPOLYLINE
5
168
100
AcDbEntity
8
0
100
AcDbPolyline
90
6
70
1
43
0.0
10
414.75018409914782
20
66.124993391137977
10
414.75018409914782
20
62.124993391137977
10
418.21428571428555
20
60.124993391137977
10
421.67838732942329
20
62.124993391137977
10
421.67838732942329
20
66.124993391137977
10
418.21428571428555
20
68.124993391137977
0
LWPOLYLINE
5
169
100
AcDbEntity
8
0
100
AcDbPolyline
90
6
70
1
43
0.0
10
422.85714285714272
20
76.166657854850655
10
419.39304124200487
20
74.166657854850641
10
419.39304124200487
20
70.166657854850641
10
422.85714285714272
20
68.166657854850641
10
426.32124447228045
20
70.166657854850641
10
426.32124447228045
20
74.166657854850641
0
LWPOLYLINE
5
170
100
AcDbEntity
8
0
100
AcDbPolyline
90
4
70
1
43
0.0
10
376.42857142857156
20
11.833342145149366
10
372.96446981343377
20
9.8333421451493663
10
372.96446981343377
20
5.8333421451493672
10
376.42857142857156
20
3.8333421451493654
0
LWPOLYLINE
5
171
100
AcDbEntity
8
0
100
AcDbPolyline
90
6
70
1
43
0.0
10
377.60732695629093
20
17.875006608862023
10
377.60732695629093
20
13.875006608862028
10
381.07142857142867
20
11.875006608862027
10
384.5355301865664
20
13.875006608862019
10
384.5355301865664
20
17.875006608862023
10
381.07142857142861
20
19.875006608862023
0
LWPOLYLINE
5
172
100
AcDbEntity
8
0
100
AcDbPolyline
90
6
70
1
43
0.0
10
385.71428571428578
20
27.91667107257469
10
382.25018409914799
20
25.916671072574683
10
382.25018409914804
20
21.91667107257469
10
385.71428571428578
20
19.916671072574683
10
389.17838732942357
20
21.916671072574676
10
389.17838732942357
20
25.916671072574683
0
LWPOLYLINE
5
173
100
AcDbEntity
8
0
100
AcDbPolyline
90
6
70
1
43
0.0
10
390.35714285714283
20
27.95833553628734
10
393.82124447228068
20
29.95833553628735
10
393.82124447228068
20
33.958335536287343
10
390.35714285714283
20
35.95833553628735
10
386.8930412420051
20
33.958335536287343
10
386.8930412420051
20
29.95833553628735
0
LWPOLYLINE
5
174
100
AcDbEntity
8
0
100
AcDbPolyline
90
6
70
1
43
0.0
10
396.17875552771932
20
50.041664463712657
10
396.17875552771932
20
46.041664463712657
10
399.64285714285717
20
44.041664463712664
10
403.1069587579949
20
46.041664463712657
10
403.1069587579949
20
50.041664463712657
10
399.64285714285717
20
52.041664463712664
0
LWPOLYLINE
5
175
100
AcDbEntity
8
0
100
AcDbPolyline
90
6
70
1
43
0.0
10
404.28571428571422
20
52.083328927425327
10
407.74981590085201
20
54.08332892742532
10
407.74981590085201
20
58.083328927425335
10
404.28571428571433
20
60.083328927425306
10
400.82161267057649
20
58.083328927425335
10
400.82161267057649
20
54.08332892742532
0
LWPOLYLINE
5
176
100
AcDbEntity
8
0
100
AcDbPolyline
90
6
70
1
43
0.0
10
412.39267304370912
20
62.124993391137977
10
412.39267304370912
20
66.124993391137977
10
408.92857142857139
20
68.124993391137977
10
405.4644698134336
20
66.124993391137977
10
405.4644698134336
20
62.124993391137977
10
408.92857142857139
20
60.124993391137977
0
LWPOLYLINE
5
177
100
AcDbEntity
8
0
100
AcDbPolyline
90
6
70
1
43
0.0
10
410.10732695629076
20
74.166657854850641
10
410.10732695629076
20
70.166657854850641
10
413.57142857142844
20
68.166657854850641
10
417.03553018656623
20
70.166657854850641
10
417.03553018656623
20
74.166657854850641
10
413.57142857142844
20
76.166657854850655
0
LWPOLYLINE
5
178
100
AcDbEntity
8
0
100
AcDbPolyline
90
6
70
1
43
0.0
10
367.14285714285728
20
3.8333421451493654
10
370.60695875799513
20
5.8333421451493628
10
370.60695875799513
20
9.8333421451493663
10
367.14285714285728
20
11.833342145149366
10
363.67875552771955
20
9.8333421451493663
10
363.67875552771955
20
5.8333421451493672
0
LWPOLYLINE
5
179
100
AcDbEntity
8
0
100
AcDbPolyline
90
6
70
1
43
0.0
10
371.78571428571445
20
11.875006608862027
10
375.24981590085218
20
13.875006608862019
10
375.24981590085218
20
17.875006608862023
10
371.78571428571445
20
19.875006608862023
10
368.32161267057671
20
17.875006608862023
10
368.32161267057671
20
13.875006608862028
0
LWPOLYLINE
5
180
100
AcDbEntity
8
0
100
AcDbPolyline
90
6
70
1
43
0.0
10
379.89267304370924
20
25.91667107257468
10
376.42857142857156
20
27.916671072574676
10
372.96446981343377
20
25.91667107257468
10
372.96446981343377
20
21.91667107257469
10
376.42857142857156
20
19.91667107257468
10
379.89267304370924
20
21.916671072574676
0
LWPOLYLINE
5
181
100
AcDbEntity
8
0
100
AcDbPolyline
90
6
70
1
43
0.0
10
381.07142857142861
20
35.95833553628735
10
377.60732695629088
20
33.958335536287343
10
377.60732695629093
20
29.95833553628735
10
381.07142857142867
20
27.95833553628734
10
384.5355301865664
20
29.95833553628735
10
384.5355301865664
20
33.958335536287343
0
LWPOLYLINE
5
182
100
AcDbEntity
8
0
100
AcDbPolyline
90
6
70
1
43
0.0
10
385.71428571428578
20
36
10
389.17838732942351
20
38
10
389.17838732942357
20
42
10
385.71428571428584
20
44
10
382.25018409914799
20
42
10
382.25018409914804
20
38
0
LWPOLYLINE
5
183
100
AcDbEntity
8
0
100
AcDbPolyline
90
6
70
1
43
0.0
10
386.8930412420051
20
46.041664463712657
10
390.35714285714283
20
44.041664463712664
10
393.82124447228068
20
46.041664463712657
10
393.82124447228068
20
50.041664463712657
10
390.35714285714283
20
52.041664463712664
10
386.8930412420051
20
50.041664463712657
0
LWPOLYLINE
5
184
100
AcDbEntity
8
0
100
AcDbPolyline
90
6
70
1
43
0.0
10
391.53589838486226
20
58.083328927425335
10
391.53589838486226
20
54.08332892742532
10
395
20
52.083328927425327
10
398.46410161513774
20
54.08332892742532
10
398.46410161513774
20
58.083328927425335
10
395
20
60.083328927425306
0
LWPOLYLINE
5
185
100
AcDbEntity
8
0
100
AcDbPolyline
90
6
70
1
43
0.0
10
396.17875552771932
20
62.124993391137977
10
399.64285714285717
20
60.124993391137977
10
403.1069587579949
20
62.124993391137977
10
403.1069587579949
20
66.124993391137977
10
399.64285714285717
20
68.124993391137977
10
396.17875552771932
20
66.124993391137977
0
LWPOLYLINE
5
186
100
AcDbEntity
8
0
100
AcDbPolyline
90
6
70
1
43
0.0
10
407.74981590085201
20
74.166657854850641
10
404.28571428571433
20
76.166657854850655
10
400.82161267057649
20
74.166657854850641
10
400.82161267057649
20
70.166657854850641
10
404.28571428571422
20
68.166657854850641
10
407.74981590085201
20
70.166657854850641
0
LWPOLYLINE
5
187
100
AcDbEntity
8
0
100
AcDbPolyline
90
6
70
1
43
0.0
10
357.85714285714306
20
3.8333421451493614
10
361.3212444722808
20
5.8333421451493583
10
361.3212444722808
20
9.8333421451493628
10
357.85714285714306
20
11.833342145149366
10
354.39304124200532
20
9.8333421451493628
10
354.39304124200532
20
5.8333421451493628
0
LWPOLYLINE
5
188
100
AcDbEntity
8
0
100
AcDbPolyline
90
6
70
1
43
0.0
10
365.96410161513796
20
17.875006608862027
10
362.50000000000011
20
19.87500660886203
10
359.03589838486249
20
17.875006608862027
10
359.03589838486249
20
13.875006608862028
10
362.50000000000023
20
11.875006608862028
10
365.96410161513802
20
13.875006608862028
0
LWPOLYLINE
5
189
100
AcDbEntity
8
0
100
AcDbPolyline
90
6
70
1
43
0.0
10
367.14285714285728
20
19.916671072574683
10
370.60695875799513
20
21.916671072574676
10
370.60695875799513
20
25.916671072574683
10
367.14285714285728
20
27.91667107257469
10
363.67875552771955
20
25.916671072574683
10
363.67875552771955
20
21.91667107257469
0
LWPOLYLINE
5
190
100
AcDbEntity
8
0
100
AcDbPolyline
90
6
70
1
43
0.0
10
368.32161267057671
20
33.958335536287343
10
368.32161267057671
20
29.95833553628735
10
371.78571428571445
20
27.95833553628734
10
375.24981590085218
20
29.958335536287336
10
375.24981590085218
20
33.958335536287343
10
371.78571428571445
20
35.95833553628735
0
LWPOLYLINE
5
191
100
AcDbEntity
8
0
100
AcDbPolyline
90
6
70
1
43
0.0
10
376.42857142857156
20
36
10
379.89267304370924
20
38
10
379.89267304370924
20
42
10
376.42857142857156
20
44
10
372.96446981343377
20
42
10
372.96446981343377
20
38
0
LWPOLYLINE
5
192
100
AcDbEntity
8
0
100
AcDbPolyline
90
6
70
1
43
0.0
10
384.5355301865664
20
46.041664463712657
10
384.5355301865664
20
50.041664463712657
10
381.07142857142861
20
52.041664463712664
10
377.60732695629093
20
50.041664463712657
10
377.60732695629093
20
46.041664463712657
10
381.07142857142861
20
44.041664463712664
0
LWPOLYLINE
5
193
100
AcDbEntity
8
0
100
AcDbPolyline
90
6
70
1
43
0.0
10
385.71428571428578
20
52.083328927425327
10
389.17838732942351
20
54.08332892742532
10
389.17838732942357
20
58.083328927425335
10
385.71428571428584
20
60.083328927425306
10
382.25018409914799
20
58.083328927425335
10
382.25018409914804
20
54.08332892742532
0
LWPOLYLINE
5
194
100
AcDbEntity
8
0
100
AcDbPolyline
90
6
70
1
43
0.0
10
386.8930412420051
20
66.124993391137977
10
386.8930412420051
20
62.124993391137977
10
390.35714285714283
20
60.124993391137977
10
393.82124447228068
20
62.124993391137977
10
393.82124447228068
20
66.124993391137977
10
390.35714285714283
20
68.124993391137977
0
LWPOLYLINE
5
195
100
AcDbEntity
8
0
100
AcDbPolyline
90
4
70
1
43
0.0
10
398.46410161513774
20
70.166657854850641
10
398.46410161513774
20
74.166657854850641
10
395
20
76.166657854850655
10
395
20
68.166657854850641
0
LWPOLYLINE
5
196
100
AcDbEntity
8
0
100
AcDbPolyline
90
6
70
1
43
0.0
10
348.5714285714289
20
11.833342145149375
10
345.10732695629116
20
9.8333421451493752
10
345.1073269562911
20
5.8333421451493761
10
348.5714285714289
20
3.8333421451493743
10
352.03553018656663
20
5.8333421451493717
10
352.03553018656663
20
9.8333421451493752
0
LWPOLYLINE
5
197
100
AcDbEntity
8
0
100
AcDbPolyline
90
6
70
1
43
0.0
10
349.75018409914821
20
13.875006608862028
10
353.21428571428601
20
11.875006608862027
10
356.67838732942369
20
13.875006608862019
10
356.67838732942369
20
17.875006608862023
10
353.21428571428601
20
19.875006608862023
10
349.75018409914821
20
17.875006608862023
0
LWPOLYLINE
5
198
100
AcDbEntity
8
0
100
AcDbPolyline
90
5
70
1
43
0.0
10
357.85714285714306
20
19.916671072574687
10
361.3212444722808
20
21.91667107257469
10
361.3212444722808
20
25.916671072574694
10
354.39304124200532
20
25.916671072574694
10
354.39304124200532
20
21.91667107257469
0
LWPOLYLINE
5
199
100
AcDbEntity
8
0
100
AcDbPolyline
90
4
70
1
43
0.0
10
365.96410161513796
20
33.958335536287343
10
362.50000000000011
20
35.95833553628735
10
362.50000000000023
20
27.95833553628735
10
365.96410161513802
20
29.95833553628735
0
LWPOLYLINE
5
200
100
AcDbEntity
8
0
100
AcDbPolyline
90
6
70
1
43
0.0
10
370.60695875799513
20
42
10
367.14285714285734
20
44
10
363.67875552771955
20
42
10
363.67875552771955
20
38
10
367.14285714285728
20
36
10
370.60695875799513
20
38
0
LWPOLYLINE
5
201
100
AcDbEntity
8
0
100
AcDbPolyline
90
6
70
1
43
0.0
10
368.32161267057671
20
50.041664463712657
10
368.32161267057671
20
46.041664463712657
10
371.78571428571445
20
44.041664463712664
10
375.24981590085218
20
46.041664463712657
10
375.24981590085218
20
50.041664463712657
10
371.78571428571445
20
52.041664463712664
0
LWPOLYLINE
5
202
100
AcDbEntity
8
0
100
AcDbPolyline
90
6
70
1
43
0.0
10
379.89267304370924
20
58.083328927425335
10
376.42857142857156
20
60.083328927425335
10
372.96446981343377
20
58.083328927425335
10
372.96446981343377
20
54.08332892742532
10
376.42857142857156
20
52.083328927425327
10
379.89267304370924
20
54.08332892742532
0
LWPOLYLINE
5
203
100
AcDbEntity
8
0
100
AcDbPolyline
90
6
70
1
43
0.0
10
377.60732695629093
20
62.124993391137977
10
381.07142857142867
20
60.124993391137977
10
384.5355301865664
20
62.124993391137977
10
384.5355301865664
20
66.124993391137977
10
381.07142857142861
20
68.124993391137977
10
377.60732695629093
20
66.124993391137977
0
LWPOLYLINE
5
204
100
AcDbEntity
8
0
100
AcDbPolyline
90
6
70
1
43
0.0
10
347.39267304370946
20
13.875006608862028
10
347.39267304370946
20
17.87500660886203
10
343.92857142857173
20
19.875006608862034
10
340.46446981343399
20
17.87500660886203
10
340.46446981343399
20
13.875006608862037
10
343.92857142857173
20
11.875006608862028
0
LWPOLYLINE
5
205
100
AcDbEntity
8
0
100
AcDbPolyline
90
5
70
1
43
0.0
10
352.03553018656663
20
21.916671072574676
10
352.03553018656663
20
25.91667107257468
10
345.1073269562911
20
25.91667107257468
10
345.1073269562911
20
21.916671072574676
10
348.5714285714289
20
19.91667107257468
0
LWPOLYLINE
5
206
100
AcDbEntity
8
0
100
AcDbPolyline
90
4
70
1
43
0.0
10
362.50000000000023
20
44.041664463712642
10
365.96410161513802
20
46.041664463712657
10
365.96410161513796
20
50.041664463712657
10
362.50000000000011
20
52.041664463712664
0
LWPOLYLINE
5
207
100
AcDbEntity
8
0
100
AcDbPolyline
90
6
70
1
43
0.0
10
367.14285714285728
20
60.083328927425306
10
363.67875552771955
20
58.083328927425335
10
363.67875552771955
20
54.08332892742532
10
367.14285714285728
20
52.083328927425327
10
370.60695875799513
20
54.08332892742532
10
370.60695875799513
20
58.083328927425335
0
LWPOLYLINE
5
208
100
AcDbEntity
8
0
100
AcDbPolyline
90
4
70
1
43
0.0
10
372.96446981343377
20
70.166657854850641
10
376.42857142857156
20
68.166657854850641
10
376.42857142857156
20
76.166657854850655
10
372.96446981343377
20
74.166657854850641
0
LWPOLYLINE
5
209
100
AcDbEntity
8
0
100
AcDbPolyline
90
5
70
1
43
0.0
10
335.82161267057688
20
21.91667107257469
10
339.28571428571456
20
19.916671072574687
10
342.74981590085241
20
21.91667107257469
10
342.74981590085241
20
25.916671072574694
10
335.82161267057688
20
25.916671072574694
0
LWPOLYLINE
5
210
100
AcDbEntity
8
0
100
AcDbPolyline
90
5
70
1
43
0.0
10
354.39304124200532
20
54.08332892742532
10
361.3212444722808
20
54.083328927425313
10
361.3212444722808
20
58.083328927425306
10
357.85714285714306
20
60.083328927425306
10
354.39304124200532
20
58.083328927425306
0
LWPOLYLINE
5
211
100
AcDbEntity
8
0
100
AcDbPolyline
90
6
70
1
43
0.0
10
359.03589838486249
20
62.124993391137977
10
362.50000000000023
20
60.124993391137977
10
365.96410161513796
20
62.124993391137977
10
365.96410161513796
20
66.124993391137977
10
362.50000000000011
20
68.124993391137977
10
359.03589838486249
20
66.124993391137977
0
LWPOLYLINE
5
212
100
AcDbEntity
8
0
100
AcDbPolyline
90
6
70
1
43
0.0
10
367.14285714285728
20
76.166657854850655
10
363.67875552771955
20
74.166657854850641
10
363.67875552771955
20
70.166657854850641
10
367.14285714285728
20
68.166657854850641
10
370.60695875799513
20
70.166657854850641
10
370.60695875799513
20
74.166657854850641
0
LWPOLYLINE
5
213
100
AcDbEntity
8
0
100
AcDbPolyline
90
5
70
1
43
0.0
10
345.1073269562911
20
58.083328927425335
10
345.1073269562911
20
54.08332892742532
10
352.03553018656658
20
54.08332892742532
10
352.03553018656663
20
58.083328927425335
10
348.5714285714289
20
60.083328927425335
0
LWPOLYLINE
5
214
100
AcDbEntity
8
0
100
AcDbPolyline
90
4
70
1
43
0.0
10
356.67838732942369
20
62.124993391137977
10
356.67838732942369
20
66.124993391137977
10
353.21428571428601
20
68.124993391137977
10
353.21428571428601
20
60.124993391137977
0
LWPOLYLINE
5
215
100
AcDbEntity
8
0
100
AcDbPolyline
90
6
70
1
43
0.0
10
354.39304124200532
20
70.166657854850641
10
357.85714285714306
20
68.166657854850641
10
361.3212444722808
20
70.166657854850641
10
361.3212444722808
20
74.166657854850641
10
357.85714285714306
20
76.166657854850655
10
354.39304124200532
20
74.166657854850641
0
LWPOLYLINE
5
216
100
AcDbEntity
8
0
100
AcDbPolyline
90
5
70
1
43
0.0
10
342.74981590085241
20
54.083328927425313
10
342.74981590085241
20
58.083328927425306
10
339.28571428571468
20
60.083328927425306
10
335.82161267057694
20
58.083328927425306
10
335.82161267057688
20
54.08332892742532
0
LWPOLYLINE
5
217
100
AcDbEntity
8
0
100
AcDbPolyline
90
4
70
1
43
0.0
10
340.46446981343399
20
62.124993391137977
10
343.92857142857173
20
60.124993391137963
10
343.92857142857173
20
68.124993391137977
10
340.46446981343399
20
66.124993391137977
0
LWPOLYLINE
5
218
100
AcDbEntity
8
0
100
AcDbPolyline
90
6
70
1
43
0.0
10
348.5714285714289
20
68.166657854850641
10
352.03553018656663
20
70.166657854850641
10
352.03553018656663
20
74.166657854850627
10
348.5714285714289
20
76.166657854850627
10
345.1073269562911
20
74.166657854850627
10
345.1073269562911
20
70.166657854850641
0
LWPOLYLINE
5
219
100
AcDbEntity
8
0
100
AcDbPolyline
90
6
70
1
43
0.0
10
447.46446981343342
20
70.166657854850641
10
450.9285714285711
20
68.166657854850641
10
454.39267304370895
20
70.166657854850641
10
454.39267304370895
20
74.166657854850627
10
450.9285714285711
20
76.166657854850627
10
447.46446981343342
20
74.166657854850627
0
LWPOLYLINE
5
220
100
AcDbEntity
8
0
100
AcDbPolyline
90
6
70
1
43
0.0
10
452.10732695629065
20
66.124993391137977
10
452.10732695629065
20
62.124993391137977
10
455.57142857142833
20
60.124993391137963
10
459.03553018656595
20
62.124993391137977
10
459.03553018656595
20
66.124993391137977
10
455.57142857142821
20
68.124993391137977
0
LWPOLYLINE
5
221
100
AcDbEntity
8
0
100
AcDbPolyline
90
12
70
1
43
0.0
10
463.67838732942317
20
58.083328927425306
10
460.21428571428544
20
60.083328927425306
10
456.7501840991477
20
58.083328927425306
10
456.75018409914765
20
54.08332892742532
10
460.21428571428544
20
52.083328927425313
10
463.67838732942317
20
54.083328927425313
10
463.67838732942317
20
58.083328927425306
10
460.21428571428544
20
60.083328927425306
10
456.7501840991477
20
58.083328927425306
10
456.75018409914765
20
54.08332892742532
10
460.21428571428544
20
52.083328927425313
10
463.67838732942317
20
54.083328927425313
0
LWPOLYLINE
5
222
100
AcDbEntity
8
0
100
AcDbPolyline
90
6
70
1
43
0.0
10
463.8926730437089
20
74.166657854850627
10
460.42857142857116
20
76.166657854850627
10
456.96446981343342
20
74.166657854850627
10
456.96446981343342
20
70.166657854850641
10
460.42857142857116
20
68.166657854850641
10
463.8926730437089
20
70.166657854850641
0
LWPOLYLINE
5
223
100
AcDbEntity
8
0
100
AcDbPolyline
90
6
70
1
43
0.0
10
460.42857142857116
20
76.166657854850627
10
456.96446981343342
20
74.166657854850627
10
456.96446981343342
20
70.166657854850641
10
460.42857142857116
20
68.166657854850641
10
463.8926730437089
20
70.166657854850641
10
463.8926730437089
20
74.166657854850627
0
LWPOLYLINE
5
224
100
AcDbEntity
8
0
100
AcDbPolyline
90
6
70
1
43
0.0
10
465.07142857142821
20
60.124993391137963
10
468.53553018656601
20
62.124993391137977
10
468.53553018656601
20
66.124993391137977
10
465.07142857142821
20
68.124993391137977
10
461.60732695629042
20
66.124993391137977
10
461.60732695629054
20
62.124993391137977
0
LWPOLYLINE
5
225
100
AcDbEntity
8
0
100
AcDbPolyline
90
12
70
1
43
0.0
10
463.67838732942317
20
25.916671072574694
10
460.21428571428544
20
27.91667107257469
10
456.75018409914765
20
25.916671072574694
10
456.75018409914765
20
21.91667107257469
10
460.21428571428544
20
19.916671072574687
10
463.67838732942317
20
21.91667107257469
10
463.67838732942317
20
25.916671072574694
10
460.21428571428544
20
27.91667107257469
10
456.75018409914765
20
25.916671072574694
10
456.75018409914765
20
21.91667107257469
10
460.21428571428544
20
19.916671072574687
10
463.67838732942317
20
21.91667107257469
0
LWPOLYLINE
5
226
100
AcDbEntity
8
0
100
AcDbPolyline
90
6
70
1
43
0.0
10
455.57142857142827
20
11.875006608862028
10
459.03553018656595
20
13.875006608862028
10
459.03553018656595
20
17.87500660886203
10
455.57142857142827
20
19.875006608862034
10
452.10732695629065
20
17.87500660886203
10
452.10732695629065
20
13.875006608862037
0
LWPOLYLINE
5
227
100
AcDbEntity
8
0
100
AcDbPolyline
90
6
70
1
43
0.0
10
447.46446981343342
20
5.8333421451493761
10
450.9285714285711
20
3.8333421451493743
10
454.39267304370895
20
5.8333421451493717
10
454.39267304370895
20
9.8333421451493752
10
450.9285714285711
20
11.833342145149375
10
447.46446981343342
20
9.8333421451493752
0
LWPOLYLINE
5
228
100
AcDbEntity
8
0
100
AcDbPolyline
90
6
70
1
43
0.0
10
461.60732695629054
20
17.87500660886203
10
461.60732695629054
20
13.875006608862037
10
465.07142857142833
20
11.875006608862028
10
468.53553018656601
20
13.875006608862028
10
468.53553018656601
20
17.87500660886203
10
465.07142857142821
20
19.875006608862034
0
LWPOLYLINE
5
229
100
AcDbEntity
8
0
100
AcDbPolyline
90
6
70
1
43
0.0
10
463.8926730437089
20
5.8333421451493717
10
463.8926730437089
20
9.8333421451493752
10
460.42857142857116
20
11.833342145149375
10
456.96446981343342
20
9.8333421451493752
10
456.96446981343342
20
5.8333421451493761
10
460.42857142857116
20
3.8333421451493743
0
LWPOLYLINE
5
230
100
AcDbEntity
8
0
100
AcDbPolyline
90
6
70
1
43
0.0
10
463.8926730437089
20
9.8333421451493752
10
460.42857142857116
20
11.833342145149375
10
456.96446981343342
20
9.8333421451493752
10
456.96446981343342
20
5.8333421451493761
10
460.42857142857116
20
3.8333421451493743
10
463.8926730437089
20
5.8333421451493717
0
LWPOLYLINE
5
231
100
AcDbEntity
8
0
100
AcDbPolyline
90
6
70
1
43
0.0
10
473.17867304370895
20
70.166657854850641
10
473.17867304370895
20
74.166657854850627
10
469.71457142857116
20
76.166657854850627
10
466.25046981343331
20
74.166657854850627
10
466.25046981343331
20
70.166657854850641
10
469.71457142857116
20
68.166657854850641
0
LWPOLYLINE
5
232
100
AcDbEntity
8
0
100
AcDbPolyline
90
6
70
1
43
0.0
10
472.96438732942318
20
58.083328927425306
10
469.50028571428533
20
60.083328927425306
10
466.03618409914759
20
58.083328927425306
10
466.03618409914759
20
54.08332892742532
10
469.50028571428533
20
52.083328927425313
10
472.96438732942318
20
54.083328927425313
0
LWPOLYLINE
5
233
100
AcDbEntity
8
0
100
AcDbPolyline
90
6
70
1
43
0.0
10
421.67867304370907
20
46.041664463712657
10
421.67867304370907
20
50.041664463712657
10
418.21457142857133
20
52.041664463712664
10
414.75046981343354
20
50.041664463712657
10
414.75046981343354
20
46.041664463712657
10
418.21457142857133
20
44.041664463712664
0
LWPOLYLINE
5
234
100
AcDbEntity
8
0
100
AcDbPolyline
90
6
70
1
43
0.0
10
421.67867304370907
20
29.95833553628735
10
421.67867304370907
20
33.958335536287343
10
418.21457142857133
20
35.95833553628735
10
414.75046981343354
20
33.958335536287343
10
414.75046981343354
20
29.95833553628735
10
418.21457142857133
20
27.95833553628734
0
LWPOLYLINE
5
235
100
AcDbEntity
8
0
100
AcDbPolyline
90
6
70
1
43
0.0
10
472.96438732942318
20
21.91667107257469
10
472.96438732942318
20
25.916671072574694
10
469.50028571428533
20
27.91667107257469
10
466.03618409914759
20
25.916671072574694
10
466.03618409914759
20
21.91667107257469
10
469.50028571428533
20
19.916671072574687
0
LWPOLYLINE
5
236
100
AcDbEntity
8
0
100
AcDbPolyline
90
6
70
1
43
0.0
10
473.17867304370895
20
9.8333421451493752
10
469.71457142857116
20
11.833342145149375
10
466.25046981343337
20
9.8333421451493752
10
466.25046981343337
20
5.8333421451493761
10
469.71457142857116
20
3.8333421451493743
10
473.17867304370895
20
5.8333421451493717
0
LWPOLYLINE
5
237
100
AcDbEntity
8
0
100
AcDbPolyline
90
6
70
1
43
0.0
10
479.21457142857116
20
68.166657854850641
10
482.67867304370895
20
70.166657854850641
10
482.67867304370895
20
74.166657854850627
10
479.21457142857116
20
76.166657854850627
10
475.75046981343337
20
74.166657854850627
10
475.75046981343337
20
70.166657854850641
0
LWPOLYLINE
5
238
100
AcDbEntity
8
0
100
AcDbPolyline
90
6
70
1
43
0.0
10
482.46438732942318
20
58.083328927425306
10
479.00028571428538
20
60.083328927425306
10
475.53618409914759
20
58.083328927425306
10
475.53618409914759
20
54.08332892742532
10
479.00028571428538
20
52.083328927425313
10
482.46438732942318
20
54.083328927425313
0
LWPOLYLINE
5
239
100
AcDbEntity
8
0
100
AcDbPolyline
90
6
70
1
43
0.0
10
471.10732695629054
20
66.124993391137977
10
471.10732695629054
20
62.124993391137977
10
474.57142857142827
20
60.124993391137963
10
478.03553018656601
20
62.124993391137977
10
478.03553018656601
20
66.124993391137977
10
474.57142857142827
20
68.124993391137977
0
LWPOLYLINE
5
240
100
AcDbEntity
8
0
100
AcDbPolyline
90
6
70
1
43
0.0
10
488.71457142857111
20
68.166657854850641
10
492.17867304370884
20
70.166657854850641
10
492.17867304370884
20
74.166657854850627
10
488.71457142857111
20
76.166657854850627
10
485.25046981343331
20
74.166657854850627
10
485.25046981343337
20
70.166657854850641
0
LWPOLYLINE
5
241
100
AcDbEntity
8
0
100
AcDbPolyline
90
6
70
1
43
0.0
10
491.96438732942312
20
58.083328927425306
10
488.50028571428533
20
60.083328927425306
10
485.03618409914765
20
58.083328927425306
10
485.03618409914765
20
54.08332892742532
10
488.50028571428538
20
52.083328927425313
10
491.96438732942312
20
54.083328927425313
0
LWPOLYLINE
5
242
100
AcDbEntity
8
0
100
AcDbPolyline
90
6
70
1
43
0.0
10
480.60732695629048
20
62.124993391137977
10
484.07142857142816
20
60.124993391137963
10
487.53553018656601
20
62.124993391137977
10
487.53553018656601
20
66.124993391137977
10
484.07142857142816
20
68.124993391137977
10
480.60732695629042
20
66.124993391137977
0
LWPOLYLINE
5
243
100
AcDbEntity
8
0
100
AcDbPolyline
90
6
70
1
43
0.0
10
479.00028571428538
20
19.916671072574687
10
482.46438732942318
20
21.91667107257469
10
482.46438732942318
20
25.916671072574694
10
479.00028571428538
20
27.91667107257469
10
475.53618409914759
20
25.916671072574694
10
475.53618409914759
20
21.91667107257469
0
LWPOLYLINE
5
244
100
AcDbEntity
8
0
100
AcDbPolyline
90
6
70
1
43
0.0
10
478.03553018656601
20
17.87500660886203
10
474.57142857142827
20
19.875006608862034
10
471.10732695629054
20
17.87500660886203
10
471.10732695629054
20
13.875006608862037
10
474.57142857142827
20
11.875006608862028
10
478.03553018656601
20
13.875006608862028
0
LWPOLYLINE
5
245
100
AcDbEntity
8
0
100
AcDbPolyline
90
6
70
1
43
0.0
10
479.21457142857116
20
11.833342145149375
10
475.75046981343337
20
9.8333421451493752
10
475.75046981343337
20
5.8333421451493761
10
479.21457142857116
20
3.8333421451493743
10
482.67867304370895
20
5.8333421451493717
10
482.67867304370895
20
9.8333421451493752
0
LWPOLYLINE
5
246
100
AcDbEntity
8
0
100
AcDbPolyline
90
6
70
1
43
0.0
10
488.50028571428538
20
19.916671072574687
10
491.96438732942318
20
21.91667107257469
10
491.96438732942312
20
25.916671072574694
10
488.50028571428538
20
27.91667107257469
10
485.03618409914765
20
25.916671072574694
10
485.03618409914765
20
21.91667107257469
0
LWPOLYLINE
5
247
100
AcDbEntity
8
0
100
AcDbPolyline
90
6
70
1
43
0.0
10
484.07142857142816
20
19.875006608862034
10
480.60732695629042
20
17.87500660886203
10
480.60732695629048
20
13.875006608862037
10
484.07142857142816
20
11.875006608862028
10
487.53553018656595
20
13.875006608862028
10
487.53553018656601
20
17.87500660886203
0
LWPOLYLINE
5
248
100
AcDbEntity
8
0
100
AcDbPolyline
90
6
70
1
43
0.0
10
488.71457142857111
20
11.833342145149375
10
485.25046981343337
20
9.8333421451493752
10
485.25046981343337
20
5.8333421451493761
10
488.71457142857111
20
3.8333421451493743
10
492.17867304370884
20
5.8333421451493717
10
492.17867304370884
20
9.8333421451493752
0
LWPOLYLINE
5
249
100
AcDbEntity
8
0
100
AcDbPolyline
90
6
70
1
43
0.0
10
430.92867304370913
20
46.041664463712657
10
430.92867304370913
20
50.041664463712657
10
427.46457142857139
20
52.041664463712664
10
424.0004698134336
20
50.041664463712657
10
424.0004698134336
20
46.041664463712657
10
427.46457142857139
20
44.041664463712664
0
LWPOLYLINE
5
250
100
AcDbEntity
8
0
100
AcDbPolyline
90
6
70
1
43
0.0
10
422.82142857142844
20
36
10
426.28553018656618
20
38
10
426.28553018656618
20
42
10
422.82142857142844
20
44
10
419.35732695629071
20
42
10
419.35732695629071
20
38
0
LWPOLYLINE
5
251
100
AcDbEntity
8
0
100
AcDbPolyline
90
6
70
1
43
0.0
10
430.92867304370913
20
33.958335536287343
10
427.46457142857139
20
35.95833553628735
10
424.0004698134336
20
33.958335536287343
10
424.0004698134336
20
29.95833553628735
10
427.46457142857139
20
27.95833553628734
10
430.92867304370913
20
29.95833553628735
0
LWPOLYLINE
5
252
100
AcDbEntity
8
0
100
AcDbPolyline
90
6
70
1
43
0.0
10
440.17867304370907
20
46.041664463712657
10
440.17867304370907
20
50.041664463712657
10
436.71457142857139
20
52.041664463712664
10
433.25046981343354
20
50.041664463712657
10
433.25046981343354
20
46.041664463712657
10
436.71457142857139
20
44.041664463712664
0
LWPOLYLINE
5
253
100
AcDbEntity
8
0
100
AcDbPolyline
90
6
70
1
43
0.0
10
435.53553018656612
20
38
10
435.53553018656612
20
42
10
432.07142857142844
20
44
10
428.60732695629065
20
42
10
428.60732695629076
20
38
10
432.07142857142844
20
36
0
LWPOLYLINE
5
254
100
AcDbEntity
8
0
100
AcDbPolyline
90
6
70
1
43
0.0
10
440.17867304370907
20
33.958335536287343
10
436.71457142857139
20
35.95833553628735
10
433.25046981343354
20
33.958335536287343
10
433.25046981343354
20
29.95833553628735
10
436.71457142857139
20
27.95833553628734
10
440.17867304370907
20
29.95833553628735
0
LWPOLYLINE
5
255
100
AcDbEntity
8
0
100
AcDbPolyline
90
6
70
1
43
0.0
10
449.42867304370907
20
46.041664463712657
10
449.42867304370907
20
50.041664463712657
10
445.96457142857133
20
52.041664463712664
10
442.5004698134336
20
50.041664463712657
10
442.5004698134336
20
46.041664463712657
10
445.96457142857133
20
44.041664463712664
0
LWPOLYLINE
5
256
100
AcDbEntity
8
0
100
AcDbPolyline
90
6
70
1
43
0.0
10
444.78553018656618
20
42
10
441.32142857142844
20
44
10
437.85732695629065
20
42
10
437.85732695629065
20
38
10
441.32142857142844
20
36
10
444.78553018656618
20
38
0
LWPOLYLINE
5
257
100
AcDbEntity
8
0
100
AcDbPolyline
90
6
70
1
43
0.0
10
449.42867304370907
20
33.958335536287343
10
445.96457142857133
20
35.95833553628735
10
442.5004698134336
20
33.958335536287343
10
442.5004698134336
20
29.95833553628735
10
445.96457142857133
20
27.95833553628734
10
449.42867304370907
20
29.95833553628735
0
LWPOLYLINE
5
258
100
AcDbEntity
8
0
100
AcDbPolyline
90
4
70
1
43
0.0
10
447.10732695629076
20
38
10
450.5714285714285
20
36
10
450.5714285714285
20
44
10
447.10732695629076
20
42
0
LWPOLYLINE
5
259
100
AcDbEntity
8
0
100
AcDbPolyline
90
6
70
1
43
0.0
10
334.64200000000017
20
60.124993391137977
10
338.10610161513796
20
62.124993391137977
10
338.10610161513796
20
66.124993391137977
10
334.64200000000017
20
68.124993391137977
10
331.17789838486249
20
66.124993391137977
10
331.17789838486249
20
62.124993391137977
0
LWPOLYLINE
5
260
100
AcDbEntity
8
0
100
AcDbPolyline
90
6
70
1
43
0.0
10
321.97789838486244
20
62.124993391137977
10
325.44200000000018
20
60.124993391137977
10
328.90610161513791
20
62.124993391137977
10
328.90610161513791
20
66.124993391137977
10
325.44200000000018
20
68.124993391137977
10
321.97789838486244
20
66.124993391137977
0
LWPOLYLINE
5
261
100
AcDbEntity
8
0
100
AcDbPolyline
90
5
70
1
43
0.0
10
326.62161267057684
20
58.083328927425306
10
326.62161267057684
20
54.08332892742532
10
333.54981590085237
20
54.083328927425313
10
333.54981590085237
20
58.083328927425306
10
330.08571428571463
20
60.083328927425306
0
LWPOLYLINE
5
262
100
AcDbEntity
8
0
100
AcDbPolyline
90
6
70
1
43
0.0
10
316.24200000000019
20
68.124993391137977
10
312.77789838486245
20
66.124993391137977
10
312.7778983848624
20
62.124993391137977
10
316.24200000000019
20
60.124993391137977
10
319.70610161513798
20
62.124993391137977
10
319.70610161513798
20
66.124993391137977
0
LWPOLYLINE
5
263
100
AcDbEntity
8
0
100
AcDbPolyline
90
5
70
1
43
0.0
10
317.42161267057691
20
54.08332892742532
10
324.34981590085243
20
54.083328927425313
10
324.34981590085238
20
58.083328927425306
10
320.88571428571464
20
60.083328927425306
10
317.42161267057691
20
58.083328927425306
0
LWPOLYLINE
5
264
100
AcDbEntity
8
0
100
AcDbPolyline
90
6
70
1
43
0.0
10
310.50610161513794
20
66.124993391137977
10
307.0420000000002
20
68.124993391137977
10
303.57789838486246
20
66.124993391137977
10
303.57789838486246
20
62.124993391137977
10
307.0420000000002
20
60.124993391137977
10
310.50610161513794
20
62.124993391137977
0
LWPOLYLINE
5
265
100
AcDbEntity
8
0
100
AcDbPolyline
90
5
70
1
43
0.0
10
308.22161267057686
20
58.083328927425306
10
308.22161267057686
20
54.08332892742532
10
315.14981590085239
20
54.083328927425313
10
315.14981590085239
20
58.083328927425306
10
311.6857142857146
20
60.083328927425306
0
LWPOLYLINE
5
266
100
AcDbEntity
8
0
100
AcDbPolyline
90
6
70
1
43
0.0
10
294.37789838486242
20
66.124993391137977
10
294.37789838486242
20
62.124993391137977
10
297.84200000000021
20
60.124993391137977
10
301.30610161513795
20
62.124993391137977
10
301.30610161513795
20
66.124993391137977
10
297.84200000000021
20
68.124993391137977
0
LWPOLYLINE
5
267
100
AcDbEntity
8
0
100
AcDbPolyline
90
5
70
1
43
0.0
10
299.02161267057687
20
54.08332892742532
10
305.94981590085234
20
54.083328927425313
10
305.94981590085234
20
58.083328927425306
10
302.48571428571461
20
60.083328927425306
10
299.02161267057687
20
58.083328927425306
0
LWPOLYLINE
5
268
100
AcDbEntity
8
0
100
AcDbPolyline
90
6
70
1
43
0.0
10
285.17789838486243
20
66.124993391137977
10
285.17789838486243
20
62.124993391137977
10
288.64200000000017
20
60.124993391137977
10
292.10610161513796
20
62.124993391137977
10
292.10610161513796
20
66.124993391137977
10
288.64200000000017
20
68.124993391137977
0
LWPOLYLINE
5
269
100
AcDbEntity
8
0
100
AcDbPolyline
90
5
70
1
43
0.0
10
296.74981590085235
20
54.083328927425313
10
296.74981590085235
20
58.083328927425306
10
293.28571428571462
20
60.083328927425306
10
289.82161267057688
20
58.083328927425306
10
289.82161267057688
20
54.08332892742532
0
LWPOLYLINE
5
270
100
AcDbEntity
8
0
100
AcDbPolyline
90
6
70
1
43
0.0
10
342.74981590085235
20
74.166657854850627
10
339.28571428571456
20
76.166657854850627
10
335.82161267057688
20
74.166657854850627
10
335.82161267057688
20
70.166657854850641
10
339.28571428571456
20
68.166657854850641
10
342.74981590085235
20
70.166657854850641
0
LWPOLYLINE
5
271
100
AcDbEntity
8
0
100
AcDbPolyline
90
6
70
1
43
0.0
10
307.96446981343399
20
70.166657854850641
10
311.42857142857173
20
68.166657854850641
10
314.89267304370946
20
70.166657854850641
10
314.89267304370946
20
74.166657854850627
10
311.42857142857173
20
76.166657854850627
10
307.96446981343399
20
74.166657854850627
0
LWPOLYLINE
5
272
100
AcDbEntity
8
0
100
AcDbPolyline
90
6
70
1
43
0.0
10
302.14285714285745
20
68.166657854850641
10
305.60695875799519
20
70.166657854850641
10
305.60695875799519
20
74.166657854850627
10
302.14285714285745
20
76.166657854850627
10
298.67875552771972
20
74.166657854850627
10
298.67875552771966
20
70.166657854850641
0
LWPOLYLINE
5
273
100
AcDbEntity
8
0
100
AcDbPolyline
90
6
70
1
43
0.0
10
289.39304124200538
20
70.166657854850641
10
292.85714285714312
20
68.166657854850641
10
296.32124447228085
20
70.166657854850641
10
296.32124447228091
20
74.166657854850627
10
292.85714285714312
20
76.166657854850627
10
289.39304124200538
20
74.166657854850627
0
LWPOLYLINE
5
274
100
AcDbEntity
8
0
100
AcDbPolyline
90
5
70
1
43
0.0
10
330.00000000000034
20
19.916671072574687
10
326.53589838486255
20
21.91667107257469
10
326.53589838486255
20
25.916671072574694
10
333.46410161513808
20
25.916671072574694
10
333.46410161513808
20
21.91667107257469
0
LWPOLYLINE
5
275
100
AcDbEntity
8
0
100
AcDbPolyline
90
6
70
1
43
0.0
10
331.17875552771972
20
17.87500660886203
10
331.17875552771972
20
13.875006608862037
10
334.64285714285745
20
11.875006608862028
10
338.10695875799524
20
13.875006608862028
10
338.10695875799524
20
17.87500660886203
10
334.64285714285745
20
19.875006608862034
0
LWPOLYLINE
5
276
100
AcDbEntity
8
0
100
AcDbPolyline
90
6
70
1
43
0.0
10
339.28571428571456
20
3.8333421451493743
10
342.74981590085235
20
5.8333421451493717
10
342.74981590085235
20
9.8333421451493752
10
339.28571428571456
20
11.833342145149375
10
335.82161267057688
20
9.8333421451493752
10
335.82161267057688
20
5.8333421451493761
0
LWPOLYLINE
5
277
100
AcDbEntity
8
0
100
AcDbPolyline
90
5
70
1
43
0.0
10
324.1783873294238
20
25.916671072574694
10
324.1783873294238
20
21.91667107257469
10
320.71428571428606
20
19.916671072574687
10
317.25018409914833
20
21.91667107257469
10
317.25018409914833
20
25.916671072574694
0
LWPOLYLINE
5
278
100
AcDbEntity
8
0
100
AcDbPolyline
90
6
70
1
43
0.0
10
328.82124447228091
20
17.87500660886203
10
325.35714285714323
20
19.875006608862034
10
321.89304124200544
20
17.87500660886203
10
321.89304124200538
20
13.875006608862037
10
325.35714285714323
20
11.875006608862028
10
328.82124447228091
20
13.875006608862028
0
LWPOLYLINE
5
279
100
AcDbEntity
8
0
100
AcDbPolyline
90
5
70
1
43
0.0
10
311.42857142857179
20
19.916671072574687
10
307.96446981343399
20
21.91667107257469
10
307.96446981343399
20
25.916671072574694
10
314.89267304370952
20
25.916671072574694
10
314.89267304370952
20
21.91667107257469
0
LWPOLYLINE
5
280
100
AcDbEntity
8
0
100
AcDbPolyline
90
6
70
1
43
0.0
10
319.53553018656663
20
13.875006608862028
10
319.53553018656663
20
17.87500660886203
10
316.0714285714289
20
19.875006608862034
10
312.6073269562911
20
17.87500660886203
10
312.6073269562911
20
13.875006608862037
10
316.0714285714289
20
11.875006608862028
0
LWPOLYLINE
5
281
100
AcDbEntity
8
0
100
AcDbPolyline
90
5
70
1
43
0.0
10
305.60695875799524
20
21.91667107257469
10
302.14285714285745
20
19.916671072574687
10
298.67875552771972
20
21.91667107257469
10
298.67875552771972
20
25.916671072574694
10
305.60695875799524
20
25.916671072574694
0
LWPOLYLINE
5
282
100
AcDbEntity
8
0
100
AcDbPolyline
90
6
70
1
43
0.0
10
303.32161267057688
20
17.87500660886203
10
303.32161267057688
20
13.875006608862037
10
306.78571428571456
20
11.875006608862028
10
310.24981590085235
20
13.875006608862028
10
310.24981590085235
20
17.87500660886203
10
306.78571428571456
20
19.875006608862034
0
LWPOLYLINE
5
283
100
AcDbEntity
8
0
100
AcDbPolyline
90
6
70
1
43
0.0
10
307.96446981343399
20
9.8333421451493752
10
307.96446981343399
20
5.8333421451493761
10
311.42857142857173
20
3.8333421451493743
10
314.89267304370946
20
5.8333421451493717
10
314.89267304370946
20
9.8333421451493752
10
311.42857142857173
20
11.833342145149375
0
LWPOLYLINE
5
284
100
AcDbEntity
8
0
100
AcDbPolyline
90
5
70
1
43
0.0
10
289.39304124200544
20
25.916671072574694
10
296.32124447228091
20
25.916671072574694
10
296.32124447228091
20
21.91667107257469
10
292.85714285714323
20
19.916671072574687
10
289.39304124200544
20
21.91667107257469
0
LWPOLYLINE
5
285
100
AcDbEntity
8
0
100
AcDbPolyline
90
6
70
1
43
0.0
10
297.50000000000034
20
11.875006608862028
10
300.96410161513808
20
13.875006608862028
10
300.96410161513808
20
17.87500660886203
10
297.50000000000028
20
19.875006608862034
10
294.03589838486255
20
17.87500660886203
10
294.03589838486255
20
13.875006608862037
0
LWPOLYLINE
5
286
100
AcDbEntity
8
0
100
AcDbPolyline
90
6
70
1
43
0.0
10
302.14285714285745
20
3.8333421451493743
10
305.60695875799519
20
5.8333421451493717
10
305.60695875799519
20
9.8333421451493752
10
302.14285714285745
20
11.833342145149375
10
298.67875552771966
20
9.8333421451493752
10
298.67875552771966
20
5.8333421451493761
0
LINE
5
287
100
AcDbEntity
8
0
100
AcDbLine
10
280.10732695629116
20
25.916671072574694
30
0
11
280.10732695629116
21
21.91667107257469
31
0
0
LWPOLYLINE
5
288
100
AcDbEntity
8
0
100
AcDbPolyline
90
6
70
1
43
0.0
10
291.6783873294238
20
17.87500660886203
10
288.21428571428601
20
19.875006608862034
10
284.75018409914827
20
17.87500660886203
10
284.75018409914827
20
13.875006608862037
10
288.21428571428601
20
11.875006608862028
10
291.6783873294238
20
13.875006608862028
0
LWPOLYLINE
5
289
100
AcDbEntity
8
0
100
AcDbPolyline
90
6
70
1
43
0.0
10
289.39304124200538
20
5.8333421451493761
10
292.85714285714312
20
3.8333421451493743
10
296.32124447228091
20
5.8333421451493717
10
296.32124447228091
20
9.8333421451493752
10
292.85714285714312
20
11.833342145149375
10
289.39304124200538
20
9.8333421451493752
0
LINE
5
290
100
AcDbEntity
8
0
100
AcDbLine
10
392.08548007645328
20
75.496339880025658
30
0
11
385.00051658502548
21
75.499999866569951
31
0
0
LINE
5
291
100
AcDbEntity
8
0
100
AcDbLine
10
392.08548007645328
20
73.503660119974342
30
0
11
385.00051658502622
21
73.500000133430049
31
0
0
ARC
5
292
100
AcDbEntity
8
0
100
AcDbCircle
10
392
20
74.5
30
0
40
0.99999999999999867
210
0
220
0
230
1
100
AcDbArc
50
-94.844435414848306
51
94.844435414848249
0
ARC
5
293
100
AcDbEntity
8
0
100
AcDbCircle
10
385
20
74.5
30
0
40
1.0000000000000004
210
0
220
-0
230
1
100
AcDbArc
50
89.970401856963932
51
270.02959814307837
0
LINE
5
294
100
AcDbEntity
8
0
100
AcDbLine
10
392.03740639690648
20
6.4993001358304756
30
0
11
385.00009944986618
21
6.4999999950550222
31
0
0
LINE
5
295
100
AcDbEntity
8
0
100
AcDbLine
10
392.00000000000017
20
4.5000000000001608
30
0
11
385.00000000000165
21
4.5000000000001608
31
0
0
ARC
5
296
100
AcDbEntity
8
0
100
AcDbCircle
10
392.00000000000017
20
5.5000000000001599
30
0
40
0.99999999999999978
210
0
220
0
230
1
100
AcDbArc
50
-90
51
92.13233268417099
0
ARC
5
297
100
AcDbEntity
8
0
100
AcDbCircle
10
385.00000000000011
20
5.5000000000001599
30
0
40
1
210
0
220
-0
230
1
100
AcDbArc
50
89.994301942391644
51
270.00000000008794
0
ENDSEC
0
SECTION
2
OBJECTS
0
DICTIONARY
5
C
100
AcDbDictionary
3
ACAD_GROUP
350
D
3
ACAD_MLINESTYLE
350
17
0
DICTIONARY
5
D
100
AcDbDictionary
0
DICTIONARY
5
1A
330
C
100
AcDbDictionary
0
DICTIONARY
5
17
100
AcDbDictionary
0
ENDSEC
0
EOF
